# xmcd
#
# Track frame offsets: 
#        182
#        12492
#        18177
#        22475
#        26427
#        39975
#        51950
#        57250
#        68120
#        77110
#        82607
#        93755
#        98752
#        104800
#        117137
#        126350
#        132335
#        140565
#        148055
#        152652
#        159900
#
# Disc length: 2275 seconds
#
# Revision: 7
# Processed by: cddbd v1.5.2PL0 Copyright (c) Steve Scherf et al.
# Submitted via: ExactAudioCopy v0.95b4
#
DISCID=1508e115
DTITLE=La Polla Records - No Somos Nada
DYEAR=1987
DGENRE=Punk
TTITLE0=No Somos Nada
TTITLE1=Socios a la Fuerza
TTITLE2=Otro Militar
TTITLE3=Todo por la Patria
TTITLE4=Si Hay Futuro
TTITLE5=Jamaica
TTITLE6=Tu Más Enérgica Repulsa
TTITLE7=Señores del Jurado
TTITLE8=Progreso y Ciencia
TTITLE9=Real Como la Vida Misma
TTITLE10=La Justicia
TTITLE11=Cáncer
TTITLE12=Quiero Ver
TTITLE13=Qué Paz
TTITLE14=Pitufaré
TTITLE15=Odio a los Partidos
TTITLE16=Hipócritas
TTITLE17=Las Marras
TTITLE18=Mentiras Post
TTITLE19=Los Perros, La Carne
TTITLE20=Súbete los Pantalones
EXTD=
EXTT0=
EXTT1=
EXTT2=
EXTT3=
EXTT4=
EXTT5=
EXTT6=
EXTT7=
EXTT8=
EXTT9=
EXTT10=
EXTT11=
EXTT12=
EXTT13=
EXTT14=
EXTT15=
EXTT16=
EXTT17=
EXTT18=
EXTT19=
EXTT20=
PLAYORDER=
